<svg width="99" height="28" viewBox="0 0 99 28" fill="none" xmlns="http://www.w3.org/2000/svg">
<path fill-rule="evenodd" clip-rule="evenodd" d="M6.13667 7.23422C6.44713 6.69883 7.26598 6.91907 7.26598 7.53796V17.3192C7.26598 17.4959 7.21919 17.6694 7.13035 17.8221L6.81914 18.357C6.69045 18.5743 6.46277 18.7125 6.20539 18.7125C6.12232 18.7125 6.05497 18.6452 6.05497 18.5621V7.53796C6.05497 7.43128 6.08316 7.3265 6.13667 7.23422ZM7.16561 20.1937C7.19629 20.1419 7.26598 20.1674 7.26598 20.2276V25.3945C7.26598 25.7289 6.99489 26 6.66048 26C6.32607 26 6.05497 25.7289 6.05497 25.3945V22.3759C6.05497 22.1995 6.10162 22.0263 6.19017 21.8738L7.16561 20.1937ZM8.47699 25.3945C8.47699 25.7289 8.74809 26 9.0825 26C9.41691 26 9.688 25.7289 9.688 25.3945V20.4437C9.688 20.1093 9.41691 19.8382 9.0825 19.8382C8.74809 19.8382 8.47699 20.1093 8.47699 20.4437V25.3945ZM8.47699 13.115C8.47699 13.774 9.34859 14.0091 9.67999 13.4394C9.68524 13.4304 9.688 13.4201 9.688 13.4097V3.36115C9.688 2.74226 8.86915 2.52202 8.55869 3.05741C8.50518 3.14969 8.47699 3.25447 8.47699 3.36115V13.115ZM1.2927 15.5862C1.23914 15.6785 1.21094 15.7833 1.21094 15.89V18.107C1.21094 18.4414 1.48203 18.7125 1.81644 18.7125C2.15085 18.7125 2.42195 18.4414 2.42195 18.107V15.89C2.42195 15.2712 1.60324 15.0509 1.2927 15.5862ZM4.23846 18.7125C4.57287 18.7125 4.84397 18.4414 4.84397 18.107V11.7148C4.84397 11.0959 4.02511 10.8756 3.71465 11.411C3.66114 11.5033 3.63296 11.6081 3.63296 11.7148V18.107C3.63296 18.4414 3.90405 18.7125 4.23846 18.7125ZM25.5582 24.9335L18.4605 12.6495L15.1344 6.88265L11.3529 0.355498C11.2029 0.0989675 10.899 0.302893 10.899 0.600066V11.7782C10.899 12.027 11.0496 12.2457 11.1974 12.4603C11.2522 12.5399 11.3067 12.619 11.3529 12.6988L14.3128 17.8238L14.8572 18.7718C14.8869 18.8211 14.9067 18.8804 14.9265 18.9396C15.0453 19.3741 14.7286 19.8382 14.2435 19.8382H11.899C11.3467 19.8382 10.899 20.2859 10.899 20.8382V25C10.899 25.5523 11.3467 26 11.899 26L17.8171 26H24.9346C25.4889 25.9901 25.8255 25.3977 25.5582 24.9335ZM4.84397 25.0494C4.84397 24.8136 4.53204 24.7296 4.41365 24.9335C4.25641 25.2024 4.29987 25.5095 4.46633 25.7248C4.60911 25.9095 4.84397 25.748 4.84397 25.5145V25.0494ZM91.0014 18.3867L92.417 16.708C93.3178 17.4288 94.3275 17.804 95.3867 17.804C96.0697 17.804 96.436 17.5671 96.436 17.1819V17.1523C96.436 16.7771 96.139 16.5697 94.8917 16.2833C92.9416 15.839 91.437 15.2959 91.437 13.4197V13.3901C91.437 11.6916 92.7832 10.4672 94.9808 10.4672C96.535 10.4672 97.7526 10.8819 98.7425 11.6817L97.4754 13.4691C96.634 12.8865 95.7233 12.5705 94.9116 12.5705C94.2978 12.5705 94.0008 12.8272 94.0008 13.1531V13.1827C94.0008 13.5974 94.3176 13.785 95.5847 14.0714C97.6932 14.5257 98.9999 15.207 98.9999 16.9153V16.9449C98.9999 18.8113 97.5249 19.9172 95.2976 19.9172C93.6742 19.8975 92.1299 19.384 91.0014 18.3867ZM34.7247 10.5462H37.1698L41.0602 19.7395H38.3379L37.6747 18.1102H34.1506L33.4973 19.7395H30.8344L34.7247 10.5462ZM36.9422 16.1451L35.9225 13.5481L34.893 16.1451H36.9422ZM44.515 15.7403V10.6153H47.0888V15.6909C47.0888 17.0042 47.752 17.6362 48.7716 17.6362C49.7913 17.6362 50.4545 17.0338 50.4545 15.76V10.6252H53.0283V15.681C53.0283 18.6237 51.3454 19.9172 48.7419 19.9172C46.1484 19.9074 44.515 18.594 44.515 15.7403ZM61.4128 10.6153H57.8887V19.7494H61.3633C64.6598 19.7494 66.5802 17.7942 66.5802 15.1576V15.128C66.5802 12.4915 64.6796 10.6153 61.4128 10.6153ZM63.9668 15.1873C63.9668 16.6586 62.9571 17.4979 61.4425 17.4979V17.4881H60.413V12.847H61.4425C62.9571 12.847 63.9668 13.6962 63.9668 15.1576V15.1873ZM71.0843 10.6153H73.6284V19.7395H71.0843V10.6153ZM78.4889 10.6153V15.7403C78.4889 18.594 80.1223 19.9074 82.7158 19.9172C85.3193 19.9172 87.0022 18.6237 87.0022 15.681V10.6252H84.4284V15.76C84.4284 17.0338 83.7652 17.6362 82.7455 17.6362C81.7259 17.6362 81.0627 17.0042 81.0627 15.6909V10.6153H78.4889Z" fill="url(#paint0_linear)"/>
<defs>
<linearGradient id="paint0_linear" x1="25.6516" y1="26" x2="-0.127993" y2="0.348601" gradientUnits="userSpaceOnUse">
<stop stop-color="#E83000"/>
<stop offset="1" stop-color="#FF8924"/>
</linearGradient>
</defs>
</svg>
